{"title":"Charlie and the Chocolate Factory 2005 HDDVD Rip H264 AAC - IceB","uid":5332044,"size":2123071043,"categoryP":"video","categoryS":"movies","magnet":"?xt=urn:btih:fd3a50470fe1f6f3cf0ff36fccea64d17a29e488&amp;dn=Charlie+and+the+Chocolate+Factory+2005+HDDVD+Rip+H264+AAC+-+IceB&amp;tr=udp%3A%2F%2Ftracker.openbittorrent.com%3A80&amp;tr=udp%3A%2F%2Fopen.demonii.com%3A1337&amp;tr=udp%3A%2F%2Ftracker.coppersurfer.tk%3A6969&amp;tr=udp%3A%2F%2Fexodus.desync.com%3A6969","seeders":0,"leechers":1,"uploader":"IceBane","files":-1,"time":1265204113,"description":"General:\n\nTitle: Charlie and the Chocolate Factory  \nDirector: Tim Burton\nRelease Date: 15 July 2005 (USA)\nSorce Format: HD DVD\nRuntime: 115 min \nGenre: Adventure | Comedy | Family  \nColor: Color\nIMDb Rating:  7.1/10   95,486 votes           \nIMDB Link: http://www.imdb.com/title/tt0367594/\nStudio: Warner Bros. Pictures \nLanguage: English\nSubtitles: English, English SDH, French, Latin American Spanish\nSample Video: yes\n\n\nPlot:\n\nCharlie Bucket comes from a poor family, and spends most of his time dreaming about the chocolate that he loves but usually can't afford. Things change when Willy Wonka, head of the very popular Wonka Chocolate empire, announces a contest in which five gold tickets have been hidden in chocolate bars and sent throughout the country. The kids who find the tickets will be taken on a tour of Wonka's chocolate factory and get a special glimpse of the wonders within. Charlie miraculously finds a ticket, along with four other children much naughtier than him. The tour of the factory will hold more than a few surprises for this bunch.\n\n\nVideo:\n\n\nFormat                           : H.264/MPEG-4 AVC\nFormat/Info                      : Advanced Video Codec\nFormat profile                   : &lt;a class=&quot;__cf_email__&quot; href=&quot;/cdn-cgi/l/email-protection&quot; data-cfemail=&quot;84ccede3ecc4c8b0aab6&quot;&gt;[email&amp;#160;protected]&lt;/a&gt;&lt;script cf-hash='f9e31' type=&quot;text/javascript&quot;&gt;\n/* &lt;![CDATA[ */!function(){try{var t=&quot;currentScript&quot;in document?document.currentScript:function(){for(var t=document.getElementsByTagName(&quot;script&quot;),e=t.length;e--;)if(t[e].getAttribute(&quot;cf-hash&quot;))return t[e]}();if(t&amp;&amp;t.previousSibling){var e,r,n,i,c=t.previousSibling,a=c.getAttribute(&quot;data-cfemail&quot;);if(a){for(e=&quot;&quot;,r=parseInt(a.substr(0,2),16),n=2;a.length-n;n+=2)i=parseInt(a.substr(n,2),16)^r,e+=String.fromCharCode(i);e=document.createTextNode(e),c.parentNode.replaceChild(e,c)}}}catch(u){}}();/* ]]&gt; */&lt;/script&gt;\nFormat settings, CABAC           : Yes\nFormat settings, ReFrames        : 8 frames\nCodec ID                         : avc1\nCodec ID/Info                    : Advanced Video Coding\nDuration                         : 1h 55mn\nBit rate mode                    : Variable\nBit rate                         : 1980 Kbps\nMaximum bit rate                 : 6968 Kbps\nWidth                            : 1376 pixels\nHeight                           : 768 pixels\nDisplay aspect ratio             : 16:9\nOriginal display aspect ratio    : 16:9\nFrame rate mode                  : Constant\nFrame rate                       : 23.976 fps\nResolution                       : 8 bits\nColorimetry                      : 4:2:0\nScan type                        : Progressive\nBits/(Pixel*Frame)               : 0.078\nStream size                      : 1.60 GiB (81%)\n\n\nAudio:\n\n\nFormat                           : mp4a - MPEG-4 AAC LC\nFormat/Info                      : Advanced Audio Codec\nFormat version                   : Version 4\nFormat profile                   : LC\nFormat settings, SBR             : No\nCodec ID                         : 40\nDuration                         : 1h 55mn\nBit rate mode                    : Variable\nBit rate                         : 447 Kbps\nMaximum bit rate                 : 598 Kbps\nChannel(s)                       : 6 channels\nChannel positions                : Front: L C R, Rear: L R, LFE\nSampling rate                    : 48.0 KHz\nStream size                      : 369 MiB (18%)\n\n\nHope you all enjoy.\nKeep Seeding Please.\n\nIceBane","torrent":{"xt":"urn:btih:fd3a50470fe1f6f3cf0ff36fccea64d17a29e488","amp;dn":"Charlie+and+the+Chocolate+Factory+2005+HDDVD+Rip+H264+AAC+-+IceB","amp;tr":["udp%3A%2F%2Ftracker.openbittorrent.com%3A80","udp%3A%2F%2Fopen.demonii.com%3A1337","udp%3A%2F%2Ftracker.coppersurfer.tk%3A6969","udp%3A%2F%2Fexodus.desync.com%3A6969"],"infoHash":"fd3a50470fe1f6f3cf0ff36fccea64d17a29e488","infoHashBuffer":{"type":"Buffer","data":[253,58,80,71,15,225,246,243,207,15,243,111,204,234,100,209,122,41,228,136]},"announce":[],"urlList":[]}}